<svg width="1200" height="720" viewBox="0 0 1200 720" fill="none" xmlns="http://www.w3.org/2000/svg">
  <rect width="1200" height="720" rx="40" fill="#0D1220"/>
  <rect x="42" y="42" width="1116" height="636" rx="34" fill="url(#panel)"/>
  <rect x="88" y="122" width="240" height="404" rx="28" fill="#18223C"/>
  <rect x="376" y="122" width="704" height="188" rx="28" fill="#151F35"/>
  <rect x="376" y="346" width="336" height="180" rx="28" fill="#151F35"/>
  <rect x="744" y="346" width="336" height="180" rx="28" fill="#151F35"/>
  <path d="M150 442L216 354L274 380" stroke="#7B61FF" stroke-width="10" stroke-linecap="round" stroke-linejoin="round"/>
  <path d="M432 236L560 180L670 214L814 140L942 180L1024 122" stroke="#00F5D4" stroke-width="12" stroke-linecap="round" stroke-linejoin="round"/>
  <path d="M432 276L538 252L650 266L770 232L892 246L1024 210" stroke="#FFB067" stroke-width="10" stroke-linecap="round" stroke-linejoin="round" opacity="0.88"/>
  <rect x="430" y="380" width="112" height="92" rx="20" fill="#233150"/>
  <rect x="568" y="418" width="112" height="54" rx="20" fill="#00F5D4" opacity="0.18"/>
  <circle cx="846" cy="434" r="54" fill="#1F2B48"/>
  <path d="M846 400V434L870 450" stroke="#00F5D4" stroke-width="8" stroke-linecap="round" stroke-linejoin="round"/>
  <text x="92" y="100" fill="#E6EAF2" font-size="44" font-family="Arial, sans-serif" font-weight="700">InsightX</text>
  <text x="92" y="594" fill="#9EB0CC" font-size="24" font-family="Arial, sans-serif">Analytics dashboard for customer feedback and business recommendations</text>
  <text x="120" y="166" fill="#E6EAF2" font-size="24" font-family="Arial, sans-serif">Complaint Analyzer</text>
  <text x="404" y="170" fill="#E6EAF2" font-size="26" font-family="Arial, sans-serif">Trend and Rating Insights</text>
  <text x="404" y="400" fill="#E6EAF2" font-size="22" font-family="Arial, sans-serif">Gap detection and product signals</text>
  <text x="772" y="400" fill="#E6EAF2" font-size="22" font-family="Arial, sans-serif">Location-aware feedback review</text>
  <defs>
    <linearGradient id="panel" x1="42" y1="42" x2="1158" y2="678" gradientUnits="userSpaceOnUse">
      <stop stop-color="#0B0F19"/>
      <stop offset="1" stop-color="#1B2340"/>
    </linearGradient>
  </defs>
</svg>
